<svg width="65" height="106" viewBox="0 0 65 106" fill="none" xmlns="http://www.w3.org/2000/svg">
<path d="M64.4557 12.5691C57.6226 12.5691 52.0792 7.02561 52.0792 0.19248C52.0792 0.134735 52.0792 0.0577448 52.0792 0C52.0792 0 52.0792 0.134735 52.0792 0.19248C52.0792 7.02561 46.5356 12.5691 39.7025 12.5691C39.587 12.5691 39.4717 12.5691 39.3369 12.5691C39.4524 12.5691 39.5678 12.5691 39.7025 12.5691C46.5356 12.5691 52.0792 18.1126 52.0792 24.9457C52.0792 25.0612 52.0792 25.1767 52.0792 25.3115C52.0792 25.196 52.0792 25.0805 52.0792 24.9457C52.0792 18.1126 57.6226 12.5691 64.4557 12.5691C64.5135 12.5691 64.5907 12.5691 64.6484 12.5691C64.6484 12.5691 64.5135 12.5691 64.4557 12.5691Z" fill="#747474" fill-opacity="0.24"/>
<path d="M50.7878 70.4701C49.7099 69.8349 48.4972 69.2575 47.1306 68.7185C45.6869 68.1603 44.0895 67.6791 42.2609 67.2557C41.2215 67.0054 40.1243 66.8322 39.0079 66.7167C30.7696 65.735 21.1454 67.4867 15.8714 67.2557C13.3884 66.89 10.328 65.812 10.405 62.6938C10.5205 57.4391 17.7384 56.2457 17.7384 56.2457C17.7384 56.2457 19.8366 55.5912 26.2463 55.495C29.172 55.4565 31.1352 55.1678 32.4249 54.8983C36.4478 54.2438 40.0666 52.4153 42.9153 49.759C47.5926 45.8709 50.5568 40.2119 50.5568 33.9369C50.5568 22.157 40.2012 12.6099 27.4396 12.6099C14.678 12.6099 4.32246 22.157 4.32246 33.9369C4.32246 42.8104 10.2125 50.4327 18.5855 53.6087C18.5855 53.6856 18.5854 53.7434 18.5277 53.7819C14.5818 53.4739 9.1731 53.8781 4.64976 57.0733C2.28223 58.7287 0.646174 61.2695 0.126471 64.7149C-0.85519 71.317 3.99526 77.592 10.5974 78.2272C12.4067 78.4004 14.1969 78.4774 15.9099 78.4774C17.7578 78.4774 19.5479 78.4004 21.2803 78.3042C21.9732 78.2657 22.6468 78.2079 23.3205 78.1694C23.9172 78.1309 24.4947 78.0732 25.0721 78.0347C25.4763 77.9962 25.842 77.9769 26.2463 77.9384C31.2123 77.515 35.5433 77.1878 39.1235 78.2464C42.0492 79.1126 44.6477 80.46 46.5918 82.481C46.9383 82.8468 47.2655 83.2125 47.5542 83.6167C48.9978 86.1767 49.8254 89.1409 49.8254 92.2976C49.8254 95.4544 48.9592 98.5918 47.4193 101.229C46.1874 102.692 44.7631 103.981 43.1463 105.021C43.0115 105.117 42.8576 105.155 42.7421 105.213C42.5304 105.329 42.3763 105.367 42.3378 105.386C42.3378 105.386 42.4149 105.386 42.5112 105.386H42.6458H42.6843C43.1848 105.386 43.666 105.329 44.1665 105.271C44.59 105.213 45.0132 105.136 45.4174 105.078C46.1874 104.944 46.9574 104.713 47.7081 104.463C49.4404 103.885 51.0573 103.057 52.5202 102.037C55.9271 99.5927 58.4487 96.0126 59.5458 91.8549C59.95 90.3728 60.1424 88.833 60.1424 87.2161V87.0621C60.1424 80.0558 56.4276 73.8963 50.8648 70.4701H50.7878ZM14.678 34.1872C14.678 25.1212 18.5276 17.4797 23.7632 15.1891C24.8026 14.7464 25.8806 14.4962 27.0162 14.4962C27.2472 14.4962 27.4782 14.4962 27.7091 14.5347C34.1958 15.1121 39.3352 23.6776 39.3352 34.1872C39.3352 44.6967 34.1765 53.3007 27.6513 53.8589C27.4396 53.8589 27.228 53.8589 27.0162 53.8589C26.4965 53.8589 25.996 53.8204 25.4955 53.7241C19.3938 52.5308 14.6588 44.254 14.6588 34.1872H14.678Z" fill="#747474" fill-opacity="0.24"/>
</svg>
