<svg width="105" height="172" viewBox="0 0 105 172" fill="none" xmlns="http://www.w3.org/2000/svg">
<path d="M104.687 20.5251C93.589 20.5251 84.5857 11.5216 84.5857 0.423458C84.5857 0.329671 84.5857 0.204627 84.5857 0.11084C84.5857 0.11084 84.5857 0.329671 84.5857 0.423458C84.5857 11.5216 75.582 20.5251 64.4839 20.5251C64.2963 20.5251 64.1089 20.5251 63.8901 20.5251C64.0776 20.5251 64.265 20.5251 64.4839 20.5251C75.582 20.5251 84.5857 29.5286 84.5857 40.6267C84.5857 40.8143 84.5857 41.0019 84.5857 41.2207C84.5857 41.0331 84.5857 40.8456 84.5857 40.6267C84.5857 29.5286 93.589 20.5251 104.687 20.5251C104.781 20.5251 104.906 20.5251 105 20.5251C105 20.5251 104.781 20.5251 104.687 20.5251Z" fill="#FEFEFE"/>
<path d="M82.4875 114.566C80.7368 113.534 78.7672 112.596 76.5476 111.721C74.2029 110.814 71.6085 110.033 68.6385 109.345C66.9504 108.938 65.1682 108.657 63.355 108.47C49.9748 106.875 34.3436 109.72 25.7777 109.345C21.7449 108.751 16.7743 107 16.8994 101.936C17.0869 93.4011 28.8101 91.4629 28.8101 91.4629C28.8101 91.4629 32.2178 90.3999 42.6281 90.2436C47.38 90.1811 50.5686 89.7122 52.6632 89.2745C59.197 88.2116 65.0745 85.2417 69.7014 80.9275C77.2981 74.6125 82.1124 65.4214 82.1124 55.2299C82.1124 36.0974 65.2933 20.5913 44.5664 20.5913C23.8395 20.5913 7.02037 36.0974 7.02037 55.2299C7.02037 69.6418 16.5867 82.0217 30.1858 87.1799C30.1858 87.305 30.1857 87.3988 30.0919 87.4613C23.6832 86.9611 14.8986 87.6176 7.55197 92.8071C3.70671 95.4957 1.04949 99.6223 0.20541 105.218C-1.38897 115.941 6.48894 126.133 17.2119 127.164C20.1505 127.446 23.058 127.571 25.8403 127.571C28.8415 127.571 31.749 127.446 34.5626 127.289C35.688 127.227 36.782 127.133 37.8762 127.071C38.8453 127.008 39.7833 126.914 40.7212 126.852C41.3777 126.789 41.9716 126.758 42.6281 126.695C50.6938 126.008 57.728 125.476 63.5428 127.196C68.2946 128.602 72.5151 130.791 75.6726 134.073C76.2353 134.667 76.7667 135.261 77.2357 135.918C79.5803 140.076 80.9244 144.89 80.9244 150.017C80.9244 155.144 79.5176 160.24 77.0166 164.523C75.0158 166.899 72.7025 168.993 70.0765 170.681C69.8577 170.838 69.6077 170.9 69.4201 170.994C69.0762 171.182 68.8259 171.244 68.7633 171.275C68.7633 171.275 68.8887 171.275 69.045 171.275H69.2636H69.3262C70.139 171.275 70.9207 171.182 71.7335 171.088C72.4212 170.994 73.1087 170.869 73.7652 170.775C75.0157 170.556 76.2664 170.181 77.4856 169.775C80.2992 168.837 82.9253 167.493 85.3012 165.836C90.8346 161.865 94.9301 156.051 96.712 149.298C97.3685 146.891 97.6809 144.39 97.6809 141.764V141.514C97.6809 130.134 91.6475 120.13 82.6127 114.566H82.4875ZM23.8395 55.6363C23.8395 40.9118 30.0918 28.5007 38.5952 24.7805C40.2833 24.0614 42.0342 23.655 43.8787 23.655C44.2538 23.655 44.6289 23.655 45.0041 23.7175C55.5395 24.6554 63.8866 38.5671 63.8866 55.6363C63.8866 72.7055 55.5081 86.6797 44.9102 87.5863C44.5663 87.5863 44.2226 87.5863 43.8787 87.5863C43.0346 87.5863 42.2217 87.5238 41.4089 87.3675C31.4987 85.4292 23.8082 71.9865 23.8082 55.6363H23.8395Z" fill="#FEFEFE"/>
</svg>
