<svg width="100" height="100" viewBox="0 0 100 100" fill="none" xmlns="http://www.w3.org/2000/svg">
<path d="M99.2388 49.6578C72.2427 49.6578 50.3421 27.7566 50.3421 0.760445C50.3421 0.532308 50.3421 0.228137 50.3421 0C50.3421 0 50.3421 0.532308 50.3421 0.760445C50.3421 27.7566 28.4406 49.6578 1.44442 49.6578C0.988146 49.6578 0.532318 49.6578 0 49.6578C0.456273 49.6578 0.9121 49.6578 1.44442 49.6578C28.4406 49.6578 50.3421 71.5589 50.3421 98.5551C50.3421 99.0114 50.3421 99.4677 50.3421 100C50.3421 99.5437 50.3421 99.0875 50.3421 98.5551C50.3421 71.5589 72.2427 49.6578 99.2388 49.6578C99.4669 49.6578 99.7719 49.6578 100 49.6578C100 49.6578 99.4669 49.6578 99.2388 49.6578Z" fill="#071DEA"/>
</svg>
